<svg version="1.1" id="Layer_1" xmlns="http://www.w3.org/2000/svg" xmlns:xlink="http://www.w3.org/1999/xlink" x="0px" y="0px"
	 width="100%" viewBox="0 0 349 360" enable-background="new 0 0 349 360" xml:space="preserve">
<path fill="#000000" opacity="1.000000" stroke="none" 
	d="
M199.000000,361.000000 
	C132.666672,361.000000 66.833359,361.000000 1.000026,361.000000 
	C1.000018,241.000031 1.000018,121.000069 1.000009,1.000075 
	C117.333282,1.000050 233.666565,1.000050 349.999878,1.000025 
	C349.999939,120.999931 349.999939,240.999863 349.999969,360.999878 
	C299.833344,361.000000 249.666672,361.000000 199.000000,361.000000 
M8.060032,205.534348 
	C9.756265,210.877060 10.643601,216.670364 13.316544,221.469025 
	C18.939497,231.563766 21.191265,242.464325 23.227200,253.573044 
	C24.088392,258.272003 25.371428,262.961731 27.085518,267.415985 
	C28.615820,271.392609 28.942253,275.599182 31.754421,279.421844 
	C38.203316,288.188080 44.469872,296.912537 53.837868,302.865326 
	C55.106159,303.671234 55.978905,305.266876 57.310734,305.778381 
	C65.865623,309.063995 74.297935,312.958466 83.143669,315.139496 
	C104.551872,320.417969 124.119034,329.694489 142.893768,340.878632 
	C153.867233,347.415527 165.575073,352.245239 178.161179,353.661621 
	C197.564240,355.845154 215.370972,350.686523 231.640778,339.743042 
	C242.391495,332.511780 253.331604,325.499756 264.604858,319.129120 
	C272.405975,314.720673 281.261536,312.173157 289.044464,307.738464 
	C305.404755,298.416473 316.194000,284.441833 321.238495,266.148193 
	C324.761383,253.372559 329.774475,241.277496 335.463715,229.214890 
	C345.373260,208.204239 347.087128,185.822693 339.808777,163.348907 
	C337.635193,156.637390 334.483551,150.247650 331.914093,143.658203 
	C328.046082,133.738556 329.000458,123.320869 328.873047,113.005272 
	C328.715088,100.212669 327.693329,87.510574 322.846252,75.483452 
	C316.473114,59.669563 305.669373,47.877319 290.495270,39.983723 
	C278.402802,33.693199 265.233368,31.350014 252.006165,30.344296 
	C236.422760,29.159424 223.147354,23.277637 210.147964,15.133672 
	C203.386963,10.897991 195.324081,7.590388 187.477875,6.474000 
	C170.642151,4.078551 154.391724,6.904211 139.107101,15.336003 
	C131.992691,19.260689 124.026390,22.169556 116.089630,23.942318 
	C106.006882,26.194403 95.492706,26.433090 85.287720,28.236782 
	C63.851807,32.025505 46.161804,42.074627 34.228836,60.824024 
	C26.855833,72.408669 22.483833,85.114380 23.270378,98.921715 
	C24.276146,116.577362 21.030775,133.040497 12.941259,148.819962 
	C7.173312,160.070953 4.679506,172.372253 5.234820,185.051071 
	C5.525062,191.677795 6.737447,198.264160 8.060032,205.534348 
z"/>
<path fill="#FBFBF6" opacity="1.000000" stroke="none" 
	d="
M7.796690,205.201538 
	C6.737447,198.264160 5.525062,191.677795 5.234820,185.051071 
	C4.679506,172.372253 7.173312,160.070953 12.941259,148.819962 
	C21.030775,133.040497 24.276146,116.577362 23.270378,98.921715 
	C22.483833,85.114380 26.855833,72.408669 34.228836,60.824024 
	C46.161804,42.074627 63.851807,32.025505 85.287720,28.236782 
	C95.492706,26.433090 106.006882,26.194403 116.089630,23.942318 
	C124.026390,22.169556 131.992691,19.260689 139.107101,15.336003 
	C154.391724,6.904211 170.642151,4.078551 187.477875,6.474000 
	C195.324081,7.590388 203.386963,10.897991 210.147964,15.133672 
	C223.147354,23.277637 236.422760,29.159424 252.006165,30.344296 
	C265.233368,31.350014 278.402802,33.693199 290.495270,39.983723 
	C305.669373,47.877319 316.473114,59.669563 322.846252,75.483452 
	C327.693329,87.510574 328.715088,100.212669 328.873047,113.005272 
	C329.000458,123.320869 328.046082,133.738556 331.914093,143.658203 
	C334.483551,150.247650 337.635193,156.637390 339.808777,163.348907 
	C347.087128,185.822693 345.373260,208.204239 335.463715,229.214890 
	C329.774475,241.277496 324.761383,253.372559 321.238495,266.148193 
	C316.194000,284.441833 305.404755,298.416473 289.044464,307.738464 
	C281.261536,312.173157 272.405975,314.720673 264.604858,319.129120 
	C253.331604,325.499756 242.391495,332.511780 231.640778,339.743042 
	C215.370972,350.686523 197.564240,355.845154 178.161179,353.661621 
	C165.575073,352.245239 153.867233,347.415527 142.893768,340.878632 
	C124.119034,329.694489 104.551872,320.417969 83.143669,315.139496 
	C74.297935,312.958466 65.865623,309.063995 57.310734,305.778381 
	C55.978905,305.266876 55.106159,303.671234 53.837868,302.865326 
	C44.469872,296.912537 38.203316,288.188080 31.754421,279.421844 
	C28.942253,275.599182 28.615820,271.392609 27.085518,267.415985 
	C25.371428,262.961731 24.088392,258.272003 23.227200,253.573044 
	C21.191265,242.464325 18.939497,231.563766 13.316544,221.469025 
	C10.643601,216.670364 9.756265,210.877060 7.796690,205.201538 
M283.946320,226.486145 
	C283.940430,193.326797 283.892426,160.167358 283.981354,127.008263 
	C283.992584,122.813774 282.954224,120.138008 278.840454,117.970505 
	C246.914627,101.149246 215.110947,84.094566 183.363174,66.938690 
	C178.297333,64.201218 174.217072,63.966290 168.858093,66.936470 
	C137.530304,84.299660 105.986717,101.276062 74.404152,118.174011 
	C70.153206,120.448433 68.681099,123.155632 68.709557,127.929428 
	C68.922142,163.588913 68.957832,199.250565 68.775116,234.910110 
	C68.749191,239.971344 70.622047,242.612808 74.922707,244.940613 
	C107.614388,262.635529 140.209854,280.508942 172.760773,298.461884 
	C175.764267,300.118408 178.129547,300.084991 181.017624,298.459412 
	C211.535492,281.281799 241.831192,263.676605 272.810974,247.372742 
	C281.972809,242.551117 285.640259,237.156754 283.946320,226.486145 
z"/>
<path fill="#050505" opacity="1.000000" stroke="none" 
	d="
M283.947144,226.982437 
	C285.640259,237.156754 281.972809,242.551117 272.810974,247.372742 
	C241.831192,263.676605 211.535492,281.281799 181.017624,298.459412 
	C178.129547,300.084991 175.764267,300.118408 172.760773,298.461884 
	C140.209854,280.508942 107.614388,262.635529 74.922707,244.940613 
	C70.622047,242.612808 68.749191,239.971344 68.775116,234.910110 
	C68.957832,199.250565 68.922142,163.588913 68.709557,127.929428 
	C68.681099,123.155632 70.153206,120.448433 74.404152,118.174011 
	C105.986717,101.276062 137.530304,84.299660 168.858093,66.936470 
	C174.217072,63.966290 178.297333,64.201218 183.363174,66.938690 
	C215.110947,84.094566 246.914627,101.149246 278.840454,117.970505 
	C282.954224,120.138008 283.992584,122.813774 283.981354,127.008263 
	C283.892426,160.167358 283.940430,193.326797 283.947144,226.982437 
M105.265358,177.236633 
	C109.319923,179.474838 113.557198,181.448273 117.350098,184.065674 
	C119.179779,185.328323 120.173004,187.803101 121.544975,189.729004 
	C119.120926,189.658646 116.657089,189.825333 114.287971,189.427689 
	C112.900497,189.194794 111.683136,188.025192 110.356613,187.340164 
	C99.393692,181.678558 88.423134,176.031723 77.332466,170.317352 
	C76.334915,180.682571 76.401550,180.555695 85.158508,185.154587 
	C110.159767,198.284546 135.102097,211.526733 160.066589,224.726700 
	C164.246124,226.936600 168.420639,229.155960 172.764725,231.459656 
	C174.065277,220.512024 174.055664,220.530304 164.988266,215.763626 
	C154.913376,210.467331 144.794876,205.246613 134.866333,199.687637 
	C133.453812,198.896790 133.005203,196.384369 132.110474,194.668747 
	C133.853531,194.448776 135.922653,193.513138 137.283081,194.132980 
	C143.117615,196.791229 148.726257,199.941376 154.450226,202.847244 
	C160.504013,205.920547 166.595200,208.920105 173.241257,212.236923 
	C173.241257,209.131607 173.113647,206.960800 173.273727,204.811401 
	C173.471649,202.153702 172.419403,200.766220 169.982986,199.496246 
	C142.768143,185.310516 115.637611,170.963089 88.475929,156.675247 
	C84.795883,154.739441 81.069603,152.891525 76.977570,150.805557 
	C76.977570,153.265244 77.228607,154.973373 76.929138,156.578812 
	C76.123848,160.895859 78.047127,162.989700 81.873070,164.828217 
	C89.599167,168.540909 97.019447,172.889999 105.265358,177.236633 
M172.154510,250.786209 
	C174.779587,244.236969 173.544250,240.152451 168.062592,237.238815 
	C147.372803,226.241638 126.693504,215.224655 105.990005,204.253357 
	C96.437996,199.191513 86.839218,194.217957 77.197327,189.170715 
	C77.197327,193.226028 77.197327,196.867264 77.197327,200.294189 
	C99.234970,212.176361 121.037186,223.913925 142.813614,235.699158 
	C145.092575,236.932526 148.280014,238.241745 146.402542,241.467377 
	C145.879990,242.365143 141.959381,242.180771 140.181580,241.306061 
	C129.072876,235.840454 118.107155,230.081482 107.138443,224.334976 
	C97.269020,219.164352 87.456467,213.885178 77.442749,208.560242 
	C76.092278,219.055161 76.146980,218.951874 84.627678,223.443497 
	C108.380287,236.023499 132.083511,248.696732 155.805939,261.333710 
	C161.401093,264.314270 166.995041,267.297058 173.111923,270.557251 
	C173.111923,268.103882 172.852310,266.396851 173.161331,264.799805 
	C174.038391,260.267029 172.158936,257.782440 167.998322,256.090973 
	C164.504517,254.670578 161.123199,252.752090 158.095367,250.509613 
	C156.775375,249.532013 156.463516,247.193222 155.693817,245.472610 
	C157.395981,245.337769 159.319443,244.627609 160.757080,245.180573 
	C164.446320,246.599533 167.919830,248.579376 172.154510,250.786209 
M178.479813,156.996765 
	C183.828400,159.950729 189.144501,162.966690 194.555618,165.801300 
	C195.525055,166.309143 197.116699,166.533615 198.025162,166.085785 
	C200.881104,164.677887 203.548370,162.887222 206.809006,160.932877 
	C204.076263,159.449051 201.940811,158.257904 199.777374,157.119949 
	C186.190277,149.973114 172.576401,142.876755 159.027679,135.657974 
	C156.972183,134.562790 154.014816,133.486603 155.820251,130.118805 
	C157.534256,126.921608 159.880676,128.400009 162.112137,129.560089 
	C176.620285,137.102478 191.296890,144.342682 205.567215,152.310699 
	C211.946625,155.872726 217.473541,157.017700 223.303040,151.984406 
	C223.493729,151.819778 223.592667,151.548920 223.927551,151.025925 
	C221.860184,149.895798 219.864197,148.752686 217.823151,147.696747 
	C188.942474,132.755173 160.053802,117.829124 131.171753,102.890228 
	C123.906319,99.132263 121.067719,99.542305 115.095573,105.318314 
	C124.527901,110.409096 134.015656,115.375832 143.304184,120.690788 
	C144.898041,121.602806 146.950439,124.474342 146.533875,125.620010 
	C145.296249,129.023865 142.573471,127.267746 140.374298,126.156464 
	C131.386414,121.614716 122.402969,117.063980 113.434753,112.483543 
	C105.671951,108.518776 104.188148,108.708038 97.529327,114.696831 
	C124.274178,128.710159 151.028015,142.728180 178.479813,156.996765 
M222.498322,229.006271 
	C238.232452,220.258072 253.959396,211.496918 269.704010,202.767624 
	C276.632202,198.926422 277.387695,197.116165 275.128815,188.899017 
	C271.181763,191.018646 267.392426,193.407410 263.309143,195.077347 
	C261.605957,195.773895 259.277222,194.940811 257.232910,194.803253 
	C258.169281,193.146957 258.699799,190.866043 260.114899,189.946518 
	C265.226013,186.625381 270.634766,183.762283 275.827393,180.785736 
	C275.827393,177.108032 275.827393,173.657898 275.827393,169.778442 
	C274.668945,170.275253 273.787964,170.568085 272.988129,171.008362 
	C244.506454,186.685898 216.008972,202.335022 187.573593,218.096191 
	C180.424789,222.058640 180.082489,223.281311 181.707703,232.614426 
	C196.944763,224.175415 212.098877,215.765320 227.271530,207.388794 
	C232.179550,204.679153 237.051498,201.873764 242.133621,199.532486 
	C243.316528,198.987503 245.289856,200.158249 246.899475,200.539551 
	C246.328278,202.094177 245.936813,203.754013 245.113281,205.160919 
	C244.673782,205.911728 243.502731,206.252075 242.637085,206.733063 
	C223.600250,217.311005 204.606384,227.968094 185.476624,238.375336 
	C182.103958,240.210175 180.588531,242.354263 181.013718,246.108978 
	C181.224548,247.970779 181.050354,249.876205 181.050354,252.176086 
	C195.068726,244.324738 208.450928,236.829697 222.498322,229.006271 
M210.476913,243.992279 
	C203.525909,247.811203 196.817230,252.200500 189.554581,255.285858 
	C182.539093,258.266205 179.517807,262.582520 181.092972,270.019562 
	C181.145782,270.268921 181.427094,270.469940 181.782745,270.924744 
	C188.336884,267.213867 194.852997,263.332123 201.582932,259.865479 
	C203.048309,259.110657 206.168823,259.082886 206.982254,260.037109 
	C209.030838,262.440277 206.958694,264.184479 204.758759,265.441376 
	C199.163818,268.637909 193.570206,271.836823 187.987320,275.054321 
	C180.104340,279.597382 179.707855,280.544434 181.718872,289.997437 
	C210.941055,273.540955 240.125595,257.122742 269.290497,240.669769 
	C276.807892,236.428925 276.779510,236.378616 275.364441,227.332291 
	C273.848114,228.127853 272.399719,228.847549 270.988708,229.634232 
	C255.270065,238.397888 239.563034,247.182419 223.835770,255.930557 
	C221.732162,257.100647 219.271576,259.206573 217.398499,256.025269 
	C215.599319,252.969482 218.473022,251.644867 220.466507,250.236267 
	C221.406860,249.571777 222.478226,249.093796 223.484924,248.521957 
	C238.860992,239.788025 254.251709,231.079712 269.604645,222.305328 
	C276.654419,218.276321 277.404358,216.231033 275.083588,207.924927 
	C253.717163,219.842407 232.415176,231.723938 210.476913,243.992279 
M181.366623,103.130692 
	C183.856293,104.420601 186.491776,105.501923 188.769760,107.094612 
	C189.800156,107.815010 190.970291,110.112663 190.578583,110.706680 
	C189.844604,111.819771 188.059006,112.639549 186.635818,112.771301 
	C185.498886,112.876556 184.232925,111.814613 183.054596,111.211433 
	C171.148651,105.116821 159.262039,98.984337 147.342148,92.917160 
	C141.174561,89.777885 138.445282,90.362465 133.089859,95.839355 
	C163.900757,111.716385 194.766388,127.369423 225.332321,143.587311 
	C231.372681,146.792252 235.815445,146.666168 240.800369,141.905334 
	C239.526291,141.119720 238.352051,140.312210 237.104980,139.639801 
	C226.068420,133.688995 215.038376,127.725471 203.957687,121.857704 
	C201.610916,120.614967 199.834885,118.958336 201.420792,116.506538 
	C201.953995,115.682198 205.064957,115.701004 206.473145,116.396553 
	C218.292358,122.234352 230.061371,128.184280 241.698547,134.376556 
	C249.663986,138.615067 249.919800,138.778595 257.736420,132.677994 
	C256.160767,131.740845 254.706039,130.782639 253.171387,129.976639 
	C224.527237,114.932594 195.786774,100.068092 167.293716,84.743446 
	C161.452026,81.601562 156.548004,80.387154 151.229019,84.938080 
	C150.905472,85.214912 150.477463,85.369629 149.647430,85.832405 
	C160.214859,91.665741 170.428482,97.303787 181.366623,103.130692 
M151.895508,151.646683 
	C133.088165,141.776627 114.284149,131.900253 95.471756,122.039856 
	C88.625481,118.451424 85.413521,118.979019 79.472206,124.462692 
	C109.813278,140.303680 140.367737,155.906845 170.516068,172.258743 
	C177.462463,176.026337 182.487015,175.894241 187.993179,170.486115 
	C176.139359,164.303513 164.347351,158.153152 151.895508,151.646683 
M233.235596,173.745224 
	C217.684677,182.422943 202.124603,191.084320 186.587402,199.786499 
	C180.467621,203.214096 179.669983,205.604050 182.086395,213.042252 
	C183.417343,212.380264 184.749893,211.782684 186.021439,211.075439 
	C213.675415,195.694016 241.335739,180.323929 268.962769,164.894257 
	C276.873199,160.476288 276.827332,160.394165 275.466217,150.311798 
	C261.439026,158.063843 247.638977,165.690369 233.235596,173.745224 
M145.306213,167.110611 
	C122.579178,155.156052 99.852135,143.201492 77.014931,131.188980 
	C76.675194,137.130203 75.773659,141.995270 82.987442,145.589172 
	C108.977875,158.537643 134.469391,172.486832 160.166611,186.025284 
	C164.281952,188.193420 168.485489,190.194153 172.837067,192.366531 
	C173.854980,182.305618 173.842010,182.330307 166.046646,178.236374 
	C159.319916,174.703644 152.627182,171.106201 145.306213,167.110611 
M89.981056,244.475052 
	C117.553406,259.597961 145.125748,274.720856 173.178543,290.107269 
	C173.178543,288.314178 173.015823,287.160889 173.206100,286.069122 
	C174.135788,280.735168 171.954712,277.990906 166.993912,275.496155 
	C149.781540,266.840302 132.910614,257.504272 115.928070,248.392944 
	C103.062599,241.490494 90.224968,234.536133 77.620491,227.737320 
	C74.890541,235.357422 78.393211,239.439224 84.966423,241.864243 
	C86.494331,242.427963 87.905846,243.307159 89.981056,244.475052 
M195.246048,186.795563 
	C220.010254,172.954910 244.778061,159.120697 269.536407,145.269547 
	C276.619080,141.307114 276.606506,141.284622 275.591919,132.321243 
	C274.639923,132.783646 273.769287,133.164474 272.937439,133.616699 
	C244.711655,148.960739 216.471359,164.278244 188.278244,179.682098 
	C180.016922,184.195862 180.079056,184.309586 181.610275,194.247757 
	C185.989960,191.796402 190.263977,189.404175 195.246048,186.795563 
M222.115707,96.357056 
	C208.828979,89.341675 195.373398,82.622040 182.332138,75.176674 
	C176.478836,71.834969 171.914459,72.031212 167.328735,76.682671 
	C167.563095,76.919273 167.756699,77.232857 168.037598,77.381569 
	C198.501205,93.510445 229.050827,109.479912 259.371307,125.873268 
	C265.155792,129.000778 269.574066,128.958328 274.211395,124.064629 
	C257.041138,114.970810 239.881363,105.882561 222.115707,96.357056 
z"/>
<path fill="#F9F9F4" opacity="1.000000" stroke="none" 
	d="
M104.915611,177.106628 
	C97.019447,172.889999 89.599167,168.540909 81.873070,164.828217 
	C78.047127,162.989700 76.123848,160.895859 76.929138,156.578812 
	C77.228607,154.973373 76.977570,153.265244 76.977570,150.805557 
	C81.069603,152.891525 84.795883,154.739441 88.475929,156.675247 
	C115.637611,170.963089 142.768143,185.310516 169.982986,199.496246 
	C172.419403,200.766220 173.471649,202.153702 173.273727,204.811401 
	C173.113647,206.960800 173.241257,209.131607 173.241257,212.236923 
	C166.595200,208.920105 160.504013,205.920547 154.450226,202.847244 
	C148.726257,199.941376 143.117615,196.791229 137.283081,194.132980 
	C135.922653,193.513138 133.853531,194.448776 132.110474,194.668732 
	C133.005203,196.384369 133.453812,198.896790 134.866333,199.687637 
	C144.794876,205.246613 154.913376,210.467331 164.988266,215.763626 
	C174.055664,220.530304 174.065277,220.512024 172.764725,231.459656 
	C168.420639,229.155960 164.246124,226.936600 160.066589,224.726700 
	C135.102097,211.526733 110.159767,198.284546 85.158508,185.154587 
	C76.401550,180.555695 76.334915,180.682571 77.332466,170.317352 
	C88.423134,176.031723 99.393692,181.678558 110.356613,187.340164 
	C111.683136,188.025192 112.900497,189.194794 114.287971,189.427689 
	C116.657089,189.825333 119.120926,189.658646 121.544975,189.729004 
	C120.173004,187.803101 119.179779,185.328323 117.350098,184.065674 
	C113.557198,181.448273 109.319923,179.474838 104.915611,177.106628 
z"/>
<path fill="#F9F9F5" opacity="1.000000" stroke="none" 
	d="
M171.817047,250.560608 
	C167.919830,248.579376 164.446320,246.599533 160.757080,245.180573 
	C159.319443,244.627609 157.395981,245.337769 155.693817,245.472610 
	C156.463516,247.193222 156.775375,249.532013 158.095367,250.509613 
	C161.123199,252.752090 164.504517,254.670578 167.998322,256.090973 
	C172.158936,257.782440 174.038391,260.267029 173.161331,264.799805 
	C172.852310,266.396851 173.111923,268.103882 173.111923,270.557251 
	C166.995041,267.297058 161.401093,264.314270 155.805939,261.333710 
	C132.083511,248.696732 108.380287,236.023499 84.627678,223.443497 
	C76.146980,218.951874 76.092278,219.055161 77.442749,208.560242 
	C87.456467,213.885178 97.269020,219.164352 107.138443,224.334976 
	C118.107155,230.081482 129.072876,235.840454 140.181580,241.306061 
	C141.959381,242.180771 145.879990,242.365143 146.402542,241.467377 
	C148.280014,238.241745 145.092575,236.932526 142.813614,235.699158 
	C121.037186,223.913925 99.234970,212.176361 77.197327,200.294189 
	C77.197327,196.867264 77.197327,193.226028 77.197327,189.170715 
	C86.839218,194.217957 96.437996,199.191513 105.990005,204.253357 
	C126.693504,215.224655 147.372803,226.241638 168.062592,237.238815 
	C173.544250,240.152451 174.779587,244.236969 171.817047,250.560608 
z"/>
<path fill="#F8F8F4" opacity="1.000000" stroke="none" 
	d="
M178.130829,156.871490 
	C151.028015,142.728180 124.274178,128.710159 97.529327,114.696831 
	C104.188148,108.708038 105.671951,108.518776 113.434753,112.483543 
	C122.402969,117.063980 131.386414,121.614716 140.374298,126.156464 
	C142.573471,127.267746 145.296249,129.023865 146.533875,125.620010 
	C146.950439,124.474342 144.898041,121.602806 143.304184,120.690788 
	C134.015656,115.375832 124.527901,110.409096 115.095573,105.318314 
	C121.067719,99.542305 123.906319,99.132263 131.171753,102.890228 
	C160.053802,117.829124 188.942474,132.755173 217.823151,147.696747 
	C219.864197,148.752686 221.860184,149.895798 223.927551,151.025925 
	C223.592667,151.548920 223.493729,151.819778 223.303040,151.984406 
	C217.473541,157.017700 211.946625,155.872726 205.567215,152.310699 
	C191.296890,144.342682 176.620285,137.102478 162.112137,129.560089 
	C159.880676,128.400009 157.534256,126.921608 155.820251,130.118805 
	C154.014816,133.486603 156.972183,134.562790 159.027679,135.657974 
	C172.576401,142.876755 186.190277,149.973114 199.777374,157.119949 
	C201.940811,158.257904 204.076263,159.449051 206.809006,160.932877 
	C203.548370,162.887222 200.881104,164.677887 198.025162,166.085785 
	C197.116699,166.533615 195.525055,166.309143 194.555618,165.801300 
	C189.144501,162.966690 183.828400,159.950729 178.130829,156.871490 
z"/>
<path fill="#F8F8F4" opacity="1.000000" stroke="none" 
	d="
M222.165741,229.170471 
	C208.450928,236.829697 195.068726,244.324738 181.050354,252.176086 
	C181.050354,249.876205 181.224548,247.970779 181.013718,246.108978 
	C180.588531,242.354263 182.103958,240.210175 185.476624,238.375336 
	C204.606384,227.968094 223.600250,217.311005 242.637085,206.733063 
	C243.502731,206.252075 244.673782,205.911728 245.113281,205.160919 
	C245.936813,203.754013 246.328278,202.094177 246.899475,200.539551 
	C245.289856,200.158249 243.316528,198.987503 242.133621,199.532486 
	C237.051498,201.873764 232.179550,204.679153 227.271530,207.388794 
	C212.098877,215.765320 196.944763,224.175415 181.707703,232.614426 
	C180.082489,223.281311 180.424789,222.058640 187.573593,218.096191 
	C216.008972,202.335022 244.506454,186.685898 272.988129,171.008362 
	C273.787964,170.568085 274.668945,170.275253 275.827393,169.778442 
	C275.827393,173.657898 275.827393,177.108032 275.827393,180.785736 
	C270.634766,183.762283 265.226013,186.625381 260.114899,189.946518 
	C258.699799,190.866043 258.169281,193.146957 257.232910,194.803253 
	C259.277222,194.940811 261.605957,195.773895 263.309143,195.077347 
	C267.392426,193.407410 271.181763,191.018646 275.128815,188.899017 
	C277.387695,197.116165 276.632202,198.926422 269.704010,202.767624 
	C253.959396,211.496918 238.232452,220.258072 222.165741,229.170471 
z"/>
<path fill="#F8F8F4" opacity="1.000000" stroke="none" 
	d="
M210.795044,243.798889 
	C232.415176,231.723938 253.717163,219.842407 275.083588,207.924927 
	C277.404358,216.231033 276.654419,218.276321 269.604645,222.305328 
	C254.251709,231.079712 238.860992,239.788025 223.484924,248.521957 
	C222.478226,249.093796 221.406860,249.571777 220.466507,250.236267 
	C218.473022,251.644867 215.599319,252.969482 217.398499,256.025269 
	C219.271576,259.206573 221.732162,257.100647 223.835770,255.930557 
	C239.563034,247.182419 255.270065,238.397888 270.988708,229.634232 
	C272.399719,228.847549 273.848114,228.127853 275.364441,227.332291 
	C276.779510,236.378616 276.807892,236.428925 269.290497,240.669769 
	C240.125595,257.122742 210.941055,273.540955 181.718872,289.997437 
	C179.707855,280.544434 180.104340,279.597382 187.987320,275.054321 
	C193.570206,271.836823 199.163818,268.637909 204.758759,265.441376 
	C206.958694,264.184479 209.030838,262.440277 206.982254,260.037109 
	C206.168823,259.082886 203.048309,259.110657 201.582932,259.865479 
	C194.852997,263.332123 188.336884,267.213867 181.782745,270.924744 
	C181.427094,270.469940 181.145782,270.268921 181.092972,270.019562 
	C179.517807,262.582520 182.539093,258.266205 189.554581,255.285858 
	C196.817230,252.200500 203.525909,247.811203 210.795044,243.798889 
z"/>
<path fill="#F8F8F4" opacity="1.000000" stroke="none" 
	d="
M181.004364,103.036255 
	C170.428482,97.303787 160.214859,91.665741 149.647430,85.832405 
	C150.477463,85.369629 150.905472,85.214912 151.229019,84.938080 
	C156.548004,80.387154 161.452026,81.601562 167.293716,84.743446 
	C195.786774,100.068092 224.527237,114.932594 253.171387,129.976639 
	C254.706039,130.782639 256.160767,131.740845 257.736420,132.677994 
	C249.919800,138.778595 249.663986,138.615067 241.698547,134.376556 
	C230.061371,128.184280 218.292358,122.234352 206.473145,116.396553 
	C205.064957,115.701004 201.953995,115.682198 201.420792,116.506538 
	C199.834885,118.958336 201.610916,120.614967 203.957687,121.857704 
	C215.038376,127.725471 226.068420,133.688995 237.104980,139.639801 
	C238.352051,140.312210 239.526291,141.119720 240.800369,141.905334 
	C235.815445,146.666168 231.372681,146.792252 225.332321,143.587311 
	C194.766388,127.369423 163.900757,111.716385 133.089859,95.839355 
	C138.445282,90.362465 141.174561,89.777885 147.342148,92.917160 
	C159.262039,98.984337 171.148651,105.116821 183.054596,111.211433 
	C184.232925,111.814613 185.498886,112.876556 186.635818,112.771301 
	C188.059006,112.639549 189.844604,111.819771 190.578583,110.706680 
	C190.970291,110.112663 189.800156,107.815010 188.769760,107.094612 
	C186.491776,105.501923 183.856293,104.420601 181.004364,103.036255 
z"/>
<path fill="#F8F9F4" opacity="1.000000" stroke="none" 
	d="
M152.225418,151.824738 
	C164.347351,158.153152 176.139359,164.303513 187.993179,170.486115 
	C182.487015,175.894241 177.462463,176.026337 170.516068,172.258743 
	C140.367737,155.906845 109.813278,140.303680 79.472206,124.462692 
	C85.413521,118.979019 88.625481,118.451424 95.471756,122.039856 
	C114.284149,131.900253 133.088165,141.776627 152.225418,151.824738 
z"/>
<path fill="#F9F9F5" opacity="1.000000" stroke="none" 
	d="
M233.537262,173.531067 
	C247.638977,165.690369 261.439026,158.063843 275.466217,150.311798 
	C276.827332,160.394165 276.873199,160.476288 268.962769,164.894257 
	C241.335739,180.323929 213.675415,195.694016 186.021439,211.075439 
	C184.749893,211.782684 183.417343,212.380264 182.086395,213.042252 
	C179.669983,205.604050 180.467621,203.214096 186.587402,199.786499 
	C202.124603,191.084320 217.684677,182.422943 233.537262,173.531067 
z"/>
<path fill="#F8F8F4" opacity="1.000000" stroke="none" 
	d="
M145.612808,167.324005 
	C152.627182,171.106201 159.319916,174.703644 166.046646,178.236374 
	C173.842010,182.330307 173.854980,182.305618 172.837067,192.366531 
	C168.485489,190.194153 164.281952,188.193420 160.166611,186.025284 
	C134.469391,172.486832 108.977875,158.537643 82.987442,145.589172 
	C75.773659,141.995270 76.675194,137.130203 77.014931,131.188980 
	C99.852135,143.201492 122.579178,155.156052 145.612808,167.324005 
z"/>
<path fill="#F8F8F3" opacity="1.000000" stroke="none" 
	d="
M89.675987,244.258118 
	C87.905846,243.307159 86.494331,242.427963 84.966423,241.864243 
	C78.393211,239.439224 74.890541,235.357422 77.620491,227.737320 
	C90.224968,234.536133 103.062599,241.490494 115.928070,248.392944 
	C132.910614,257.504272 149.781540,266.840302 166.993912,275.496155 
	C171.954712,277.990906 174.135788,280.735168 173.206100,286.069122 
	C173.015823,287.160889 173.178543,288.314178 173.178543,290.107269 
	C145.125748,274.720856 117.553406,259.597961 89.675987,244.258118 
z"/>
<path fill="#F9F9F5" opacity="1.000000" stroke="none" 
	d="
M194.892014,186.903763 
	C190.263977,189.404175 185.989960,191.796402 181.610275,194.247757 
	C180.079056,184.309586 180.016922,184.195862 188.278244,179.682098 
	C216.471359,164.278244 244.711655,148.960739 272.937439,133.616699 
	C273.769287,133.164474 274.639923,132.783646 275.591919,132.321243 
	C276.606506,141.284622 276.619080,141.307114 269.536407,145.269547 
	C244.778061,159.120697 220.010254,172.954910 194.892014,186.903763 
z"/>
<path fill="#F8F8F4" opacity="1.000000" stroke="none" 
	d="
M222.418655,96.575684 
	C239.881363,105.882561 257.041138,114.970810 274.211395,124.064629 
	C269.574066,128.958328 265.155792,129.000778 259.371307,125.873268 
	C229.050827,109.479912 198.501205,93.510445 168.037598,77.381569 
	C167.756699,77.232857 167.563095,76.919273 167.326233,76.682129 
	C171.914459,72.031212 176.478836,71.834969 182.332138,75.176674 
	C195.373398,82.622040 208.828979,89.341675 222.418655,96.575684 
z"/>
</svg>